# xmcd
#
# Track frame offsets:
#	150
#	10872
#	29795
#	43285
#	52420
#	65157
#	78642
#	89600
#	102777
#	113222
#	131845
#	143035
#
# Disc length: 2144 seconds
#
# Revision: 0
# Processed by: cddbd v1.5PL3 Copyright (c) Steve Scherf et al.
# Submitted via: dBpowerAMP V4.0
#
DISCID=b9085e0c
DTITLE=Jeannie Seely - Been There...Sung That
DYEAR=1900
DGENRE=Country
TTITLE0=Leavin' and Sayin' Goodbye
TTITLE1=Old Friends (with Willie Nelson)
TTITLE2=He's All I Need
TTITLE3=It Wasn't God Who Made Honky Tonk Angels
TTITLE4=Making Believe (with Terri Williams)
TTITLE5=I Can't Stop Loving You (with T. Graham Brown)
TTITLE6=Burning An Old Memory
TTITLE7=Make The World Go Away
TTITLE8=Candy Kisses
TTITLE9=When He Leaves You
TTITLE10=Sentimental Journey
TTITLE11=How Great Thou Art
EXTD=
EXTT0=
EXTT1=
EXTT2=
EXTT3=
EXTT4=
EXTT5=
EXTT6=
EXTT7=
EXTT8=
EXTT9=
EXTT10=
EXTT11=
PLAYORDER=
